HIERARCHY
ROOT joint_Root
{
	OFFSET 0.0 0.0 0.0
	CHANNELS 6 Xposition Yposition Zposition Zrotation Xrotation Yrotation 
	JOINT Hips
	{
		OFFSET 4.5925 91.4895 -427.239
		CHANNELS 6 Xposition Yposition Zposition Zrotation Xrotation Yrotation 
		JOINT Spine
		{
			OFFSET 15.7357 0.0 0.0
			CHANNELS 6 Xposition Yposition Zposition Zrotation Xrotation Yrotation 
			JOINT Chest
			{
				OFFSET 8.98455 -0.406207 0.0
				CHANNELS 6 Xposition Yposition Zposition Zrotation Xrotation Yrotation 
				JOINT Neck
				{
					OFFSET 16.3773 0.0 0.0
					CHANNELS 6 Xposition Yposition Zposition Zrotation Xrotation Yrotation 
					JOINT Head
					{
						OFFSET 6.45672 0.0 0.0
						CHANNELS 6 Xposition Yposition Zposition Zrotation Xrotation Yrotation 
						End Site
						{
							OFFSET 0.0 0.0 0.0
						}
					}
				}
				JOINT Shoulder_L
				{
					OFFSET 12.9942 -0.242716 4.98039
					CHANNELS 6 Xposition Yposition Zposition Zrotation Xrotation Yrotation 
					JOINT UpperArm_L
					{
						OFFSET 5.34809 0.0 0.0
						CHANNELS 6 Xposition Yposition Zposition Zrotation Xrotation Yrotation 
						JOINT LowerArm_L
						{
							OFFSET 24.3286 1.87007e-05 0.0
							CHANNELS 6 Xposition Yposition Zposition Zrotation Xrotation Yrotation 
							JOINT Hand_L
							{
								OFFSET 22.2916 0.0 0.0
								CHANNELS 6 Xposition Yposition Zposition Zrotation Xrotation Yrotation 
								End Site
								{
									OFFSET 0.0 0.0 0.0
								}
							}
						}
					}
				}
				JOINT Shoulder_R
				{
					OFFSET 12.9945 -0.242716 -4.98039
					CHANNELS 6 Xposition Yposition Zposition Zrotation Xrotation Yrotation 
					JOINT UpperArm_R
					{
						OFFSET -5.34813 0.0 0.0
						CHANNELS 6 Xposition Yposition Zposition Zrotation Xrotation Yrotation 
						JOINT LowerArm_R
						{
							OFFSET -24.3289 0.000322201 0.0
							CHANNELS 6 Xposition Yposition Zposition Zrotation Xrotation Yrotation 
							JOINT Hand_R
							{
								OFFSET -22.2915 -0.000108084 0.0
								CHANNELS 6 Xposition Yposition Zposition Zrotation Xrotation Yrotation 
								End Site
								{
									OFFSET 0.0 0.0 0.0
								}
							}
						}
					}
				}
			}
		}
		JOINT UpperLeg_L
		{
			OFFSET -2.19248 -6.46944 0.0
			CHANNELS 6 Xposition Yposition Zposition Zrotation Xrotation Yrotation 
			JOINT LowerLeg_L
			{
				OFFSET 39.0811 0.0 -1.23785e-05
				CHANNELS 6 Xposition Yposition Zposition Zrotation Xrotation Yrotation 
				JOINT Foot_L
				{
					OFFSET 40.9854 0.0 -1.26872e-05
					CHANNELS 6 Xposition Yposition Zposition Zrotation Xrotation Yrotation 
					JOINT Toes_L
					{
						OFFSET 11.7543 0.0 0.0
						CHANNELS 6 Xposition Yposition Zposition Zrotation Xrotation Yrotation 
						End Site
						{
							OFFSET 0.0 0.0 0.0
						}
					}
				}
			}
		}
		JOINT UpperLeg_R
		{
			OFFSET -2.19251 6.46944 0.0
			CHANNELS 6 Xposition Yposition Zposition Zrotation Xrotation Yrotation 
			JOINT LowerLeg_R
			{
				OFFSET -39.0811 -0.00228153 -0.0401928
				CHANNELS 6 Xposition Yposition Zposition Zrotation Xrotation Yrotation 
				JOINT Foot_R
				{
					OFFSET -40.9854 0.0 0.0
					CHANNELS 6 Xposition Yposition Zposition Zrotation Xrotation Yrotation 
					JOINT Toes_R
					{
						OFFSET -11.7543 0.0 0.0
						CHANNELS 6 Xposition Yposition Zposition Zrotation Xrotation Yrotation 
						End Site
						{
							OFFSET 0.0 0.0 0.0
						}
					}
				}
			}
		}
	}
}
MOTION
Frames:	6
Frame Time:	0.0333333
0.000000 0.000000 0.000000 0.000000 0.000000 -0.000000 -7.659040 81.243200 429.214000 -93.701800 -2.710180 169.825000 15.735700 0.000005 -0.000001 83.908800 80.356800 -86.756200 8.984550 -0.406207 -0.000000 11.370400 -2.119790 -5.481790 16.377300 -0.000001 -0.000001 -1.567720 -4.212510 2.131940 6.456720 -0.000001 -0.000000 -12.918700 -4.657030 6.989830 12.994200 -0.242716 4.980390 -91.016200 3.837060 -75.140600 5.348090 -0.000007 -0.000001 -63.003700 10.389500 -10.951400 24.328600 0.000019 0.000005 10.441100 8.177920 -52.337900 22.291600 -0.000001 0.000005 10.319400 5.514340 -7.118070 12.994500 -0.242716 -4.980390 88.825600 7.386900 -80.941500 -5.348130 -0.000001 -0.000004 -67.338200 28.329100 -6.323670 -24.328900 0.000322 -0.000009 -4.686790 -6.376810 -36.418100 -22.291500 -0.000108 -0.000004 11.213900 5.419170 -3.549100 -2.192480 -6.469440 -0.000000 172.395000 -3.383260 -38.277200 39.081100 -0.000007 -0.000012 -0.160454 0.079937 63.519500 40.985400 -0.000006 -0.000013 2.936110 -3.011910 -85.782800 11.754300 -0.000000 0.000003 -0.000149 -0.001444 -16.632500 -2.192510 6.469440 -0.000001 172.392000 8.310430 153.871000 -39.081100 -0.002282 -0.040193 0.401460 0.139624 109.337000 -40.985400 0.000008 0.000006 -1.553850 1.871320 -27.100900 -11.754300 -0.000006 -0.000006 -0.027077 -0.203739 -24.913200
0.000000 0.000000 0.000000 0.000000 0.000000 -0.000000 -7.918000 79.698700 422.446000 -94.462500 -5.671730 169.342000 15.735700 0.000005 -0.000001 80.620500 80.114200 -83.239200 8.984550 -0.406207 -0.000000 11.684700 -3.284760 -4.900250 16.377300 -0.000001 -0.000001 -2.665320 -4.961560 1.556390 6.456720 -0.000001 -0.000000 -12.417900 -4.931490 7.496260 12.994200 -0.242716 4.980390 -90.858000 3.805150 -77.294800 5.348090 -0.000007 -0.000001 -60.730200 13.975900 -28.893300 24.328600 0.000019 0.000005 12.200500 7.157990 -60.035000 22.291600 -0.000001 0.000005 10.482300 5.523300 -7.506860 12.994500 -0.242716 -4.980390 88.705500 7.216820 -79.800000 -5.348130 -0.000001 -0.000004 -68.219900 25.255000 5.879920 -24.328900 0.000322 -0.000009 0.055056 0.133637 -26.450700 -22.291500 -0.000108 -0.000004 5.947800 5.389720 -2.617620 -2.192480 -6.469440 -0.000000 172.559000 -2.134450 -33.673000 39.081100 -0.000007 -0.000012 -0.123824 0.056983 65.290400 40.985400 -0.000006 -0.000013 2.957170 -1.838420 -92.258300 11.754300 -0.000000 0.000003 -0.000115 -0.001155 -16.621700 -2.192510 6.469440 -0.000001 174.602000 9.631700 135.995000 -39.081100 -0.002282 -0.040193 0.171697 0.118583 125.179000 -40.985400 0.000008 0.000006 2.888170 -0.212118 -28.591600 -11.754300 -0.000006 -0.000006 -0.027101 -0.203856 -24.918000
0.000000 0.000000 0.000000 0.000000 0.000000 -0.000000 -7.625570 79.439000 414.527000 -93.054000 -8.766510 168.268000 15.735700 0.000005 -0.000001 73.886700 80.378800 -75.460100 8.984550 -0.406207 -0.000000 10.682300 -5.342410 -2.646700 16.377300 -0.000001 -0.000001 -2.598190 -4.835620 1.280830 6.456720 -0.000001 -0.000000 -11.742200 -3.314910 7.514270 12.994200 -0.242716 4.980390 -89.957700 -0.219163 -78.924700 5.348090 -0.000007 -0.000001 -61.981100 14.265000 -39.854200 24.328600 0.000019 0.000005 11.833600 3.958000 -71.810600 22.291600 -0.000001 0.000005 10.635200 5.518640 -7.305870 12.994500 -0.242716 -4.980390 88.595400 6.042870 -76.884000 -5.348130 -0.000001 -0.000004 -66.545500 27.240200 17.021500 -24.328900 0.000322 -0.000009 2.990350 5.871260 -27.077700 -22.291500 -0.000108 -0.000004 2.707220 5.411230 -3.306510 -2.192480 -6.469440 -0.000000 176.051000 -2.040810 -26.690800 39.081100 -0.000007 -0.000012 -0.124510 0.066483 61.901400 40.985400 -0.000006 -0.000013 3.026580 0.952185 -96.921500 11.754300 -0.000000 0.000003 -0.000085 -0.000895 -16.612000 -2.192510 6.469440 -0.000001 -179.636000 10.460300 121.244000 -39.081100 -0.002282 -0.040193 -0.128350 -0.113612 130.765000 -40.985400 0.000008 0.000006 7.886530 -6.293980 -34.005900 -11.754300 -0.000006 -0.000006 -0.026159 -0.199289 -24.729000
0.000000 0.000000 0.000000 0.000000 0.000000 -0.000000 -6.869530 81.034700 405.230000 -89.826200 -11.782100 166.895000 15.735700 0.000005 -0.000001 64.491400 80.618600 -64.226700 8.984550 -0.406207 -0.000000 9.253810 -8.032530 1.180800 16.377300 -0.000001 -0.000001 -2.551680 -4.551630 0.830639 6.456720 -0.000001 -0.000000 -10.966000 -1.030800 7.106300 12.994200 -0.242716 4.980390 -89.418300 -3.061400 -79.239700 5.348090 -0.000007 -0.000001 -61.283500 12.703200 -46.188700 24.328600 0.000019 0.000005 9.162270 1.103740 -83.198900 22.291600 -0.000001 0.000005 12.908400 5.511890 -7.020650 12.994500 -0.242716 -4.980390 88.788900 4.293330 -74.220400 -5.348130 -0.000001 -0.000004 -63.316400 28.379600 24.606600 -24.328900 0.000322 -0.000009 -0.435572 -0.743410 -30.166800 -22.291500 -0.000108 -0.000004 0.325503 5.425800 -3.801680 -2.192480 -6.469440 -0.000000 -177.460000 -3.081380 -15.812400 39.081100 -0.000007 -0.000012 -0.218238 0.187543 49.326500 40.985400 -0.000006 -0.000013 2.741230 5.271890 -97.245300 11.754300 -0.000000 0.000003 -0.000004 -0.000052 -16.579600 -2.192510 6.469440 -0.000001 -172.908000 8.233520 113.339000 -39.081100 -0.002282 -0.040193 -0.229465 -0.169133 125.984000 -40.985400 0.000008 0.000006 9.430570 -10.558200 -43.392900 -11.754300 -0.000006 -0.000006 -0.023780 -0.187394 -24.237200
0.000000 0.000000 0.000000 0.000000 0.000000 -0.000000 -6.422280 84.029700 395.335000 -86.220600 -13.464000 164.947000 15.735700 0.000005 -0.000001 54.996100 81.106400 -52.842900 8.984550 -0.406207 -0.000000 7.085150 -10.181800 4.942740 16.377300 -0.000001 -0.000001 -2.089580 -4.062010 0.792284 6.456720 -0.000001 -0.000000 -9.844040 1.109920 6.188970 12.994200 -0.242716 4.980390 -88.861100 -5.621910 -78.530600 5.348090 -0.000007 -0.000001 -61.874200 11.257900 -47.205600 24.328600 0.000019 0.000005 9.129200 -0.328544 -92.037100 22.291600 -0.000001 0.000005 12.255100 5.503610 -6.674860 12.994500 -0.242716 -4.980390 89.622200 1.214760 -72.696400 -5.348130 -0.000001 -0.000004 -60.714600 25.606500 29.067100 -24.328900 0.000322 -0.000009 -1.323600 -2.048900 -32.851800 -22.291500 -0.000108 -0.000004 -0.422407 5.442240 -4.364510 -2.192480 -6.469440 -0.000000 -171.923000 -1.931590 -7.168320 39.081100 -0.000007 -0.000012 -0.031701 0.043252 36.240700 40.985400 -0.000006 -0.000013 1.734450 6.238300 -83.034300 11.754300 -0.000000 0.000003 -0.041127 -0.264585 -27.448800 -2.192510 6.469440 -0.000001 -169.390000 3.904410 109.978000 -39.081100 -0.002282 -0.040193 -0.063396 -0.029581 113.842000 -40.985400 0.000008 0.000006 7.202120 -10.967600 -53.152600 -11.754300 -0.000006 -0.000006 -0.019225 -0.162957 -23.229500
0.000000 0.000000 0.000000 0.000000 0.000000 -0.000000 -6.061670 87.638100 385.731000 -84.662700 -14.797700 162.004000 15.735700 0.000005 -0.000001 44.825900 81.487200 -41.344300 8.984550 -0.406207 -0.000000 4.702540 -12.148100 7.476680 16.377300 -0.000001 -0.000001 -1.979420 -3.604420 0.635710 6.456720 -0.000001 -0.000000 -9.396460 2.826130 5.361480 12.994200 -0.242716 4.980390 -88.397100 -7.370110 -77.694400 5.348090 -0.000007 -0.000001 -63.318100 10.926900 -45.428700 24.328600 0.000019 0.000005 10.104700 -1.352860 -97.544700 22.291600 -0.000001 0.000005 9.349350 5.488900 -6.087490 12.994500 -0.242716 -4.980390 90.545600 -1.653130 -71.739100 -5.348130 -0.000001 -0.000004 -59.405300 22.255900 31.932400 -24.328900 0.000322 -0.000009 -2.081910 -2.872420 -35.921500 -22.291500 -0.000108 -0.000004 -0.214038 5.456620 -4.878420 -2.192480 -6.469440 -0.000000 -168.134000 -5.119830 -4.024470 39.081100 -0.000007 -0.000012 -0.009403 0.017675 28.014600 40.985400 -0.000006 -0.000013 -0.398304 9.932790 -59.032800 11.754300 -0.000000 0.000003 -0.225328 -0.685618 -46.163900 -2.192510 6.469440 -0.000001 -168.839000 1.481050 108.964000 -39.081100 -0.002282 -0.040193 0.088473 0.009621 96.504400 -40.985400 0.000008 0.000006 5.959180 -10.609000 -59.716100 -11.754300 -0.000006 -0.000006 -0.020216 -0.168485 -23.457200
